<?xml version="1.0" standalone="no"?>
<!DOCTYPE svg PUBLIC "-//W3C//DTD SVG 1.1//EN"
"http://www.w3.org/Graphics/SVG/1.1/DTD/svg11.dtd">

<svg width="352" height="195" view_box="0 0 352 195"
xmlns="http://www.w3.org/2000/svg"
xmlns:link="http://www.w3.org/1999/xlink">\n\n<desc>Généré par Mocodo 2.3.7 le Sun, 19 Jun 2022 06:11:24</desc>

<rect id="frame" x="0" y="0" width="352" height="195" fill="#ffffbf" stroke="none" stroke-width="0"/>

<!-- Association contains -->
<line x1="62" y1="135" x2="190" y2="135" stroke="#f46d43" stroke-width="2"/>
<text x="120" y="152.0" fill="#3288bd" font-family="Verdana" font-size="12">1,N</text>
<line x1="304" y1="135" x2="190" y2="135" stroke="#f46d43" stroke-width="2"/>
<text x="239" y="152.0" fill="#3288bd" font-family="Verdana" font-size="12">0,1</text>
<g id="association-contains">
	<path d="M 219 110 a 14 14 90 0 1 14 14 V 135 h -86 V 124 a 14 14 90 0 1 14 -14" fill="#fdae61" stroke="#fdae61" stroke-width="0"/>
	<path d="M 233 135.0 v 11 a 14 14 90 0 1 -14 14 H 161 a 14 14 90 0 1 -14 -14 V 135.0 H 86" fill="#fee08b" stroke="#fee08b" stroke-width="0"/>
	<rect x="147" y="110" width="86" height="50" fill="none" rx="14" stroke="#f46d43" stroke-width="2"/>
	<line x1="147" y1="135" x2="233" y2="135" stroke="#f46d43" stroke-width="1"/>
	<text x="164" y="127.7" fill="#000000" font-family="Verdana" font-size="12">contains</text>
	<text x="154" y="152.8" fill="#000000" font-family="Verdana" font-size="12">listeImages</text>
</g>

<!-- Association belong -->
<line x1="62" y1="135" x2="190" y2="34" stroke="#f46d43" stroke-width="2"/>
<text x="84.9891914857" y="93" fill="#3288bd" font-family="Verdana" font-size="12">1,1</text>
<line x1="304" y1="135" x2="190" y2="34" stroke="#f46d43" stroke-width="2"/>
<text x="239" y="110.979911506" fill="#3288bd" font-family="Verdana" font-size="12">0,1</text>
<g id="association-belong">
	<path d="M 231 9 a 14 14 90 0 1 14 14 V 34 h -110 V 23 a 14 14 90 0 1 14 -14" fill="#fdae61" stroke="#fdae61" stroke-width="0"/>
	<path d="M 245 34.0 v 11 a 14 14 90 0 1 -14 14 H 149 a 14 14 90 0 1 -14 -14 V 34.0 H 110" fill="#fee08b" stroke="#fee08b" stroke-width="0"/>
	<rect x="135" y="9" width="110" height="50" fill="none" rx="14" stroke="#f46d43" stroke-width="2"/>
	<line x1="135" y1="34" x2="245" y2="34" stroke="#f46d43" stroke-width="1"/>
	<text x="169" y="26.7" fill="#000000" font-family="Verdana" font-size="12">belong</text>
	<text x="142" y="51.8" fill="#000000" font-family="Verdana" font-size="12">imagePrincipale</text>
</g>

<!-- Entity realisation -->
<g id="entity-realisation">
	<g id="frame-realisation">
		<rect x="9" y="101" width="106" height="25" fill="#abdda4" stroke="#abdda4" stroke-width="0"/>
		<rect x="9" y="126.0" width="106" height="43" fill="#e6f598" stroke="#e6f598" stroke-width="0"/>
		<rect x="9" y="101" width="106" height="68" fill="none" stroke="#66c2a5" stroke-width="2"/>
		<line x1="9" y1="126" x2="115" y2="126" stroke="#66c2a5" stroke-width="1"/>
	</g>
	<text x="30" y="118.7" fill="#000000" font-family="Verdana" font-size="12">realisation</text>
	<text x="14" y="143.8" fill="#000000" font-family="Verdana" font-size="12">codeRealisation</text>
	<line x1="14" y1="146" x2="109" y2="146" stroke="#000000" stroke-width="1"/>
	<text x="14" y="160.8" fill="#000000" font-family="Verdana" font-size="12">titre</text>
</g>

<!-- Entity images -->
<g id="entity-images">
	<g id="frame-images">
		<rect x="265" y="84" width="78" height="25" fill="#abdda4" stroke="#abdda4" stroke-width="0"/>
		<rect x="265" y="109.0" width="78" height="77" fill="#e6f598" stroke="#e6f598" stroke-width="0"/>
		<rect x="265" y="84" width="78" height="102" fill="none" stroke="#66c2a5" stroke-width="2"/>
		<line x1="265" y1="109" x2="343" y2="109" stroke="#66c2a5" stroke-width="1"/>
	</g>
	<text x="282" y="101.7" fill="#000000" font-family="Verdana" font-size="12">images</text>
	<text x="270" y="126.7" fill="#000000" font-family="Verdana" font-size="12">codeImage</text>
	<line x1="270" y1="129" x2="338" y2="129" stroke="#000000" stroke-width="1"/>
	<text x="270" y="143.8" fill="#000000" font-family="Verdana" font-size="12">title</text>
	<text x="270" y="160.8" fill="#000000" font-family="Verdana" font-size="12">lien</text>
</g>
</svg>